<mxfile host="app.diagrams.net" agent="Mozilla/5.0 (Windows NT 10.0; Win64; x64) AppleWebKit/537.36 (KHTML, like Gecko) Chrome/139.0.0.0 Safari/537.36" version="28.2.0">
  <diagram name="Page-1" id="Wle7-jORHeCeU7m_g3zP">
    <mxGraphModel dx="1303" dy="659" grid="1" gridSize="10" guides="1" tooltips="1" connect="1" arrows="1" fold="1" page="1" pageScale="1" pageWidth="850" pageHeight="1100" math="0" shadow="0">
      <root>
        <mxCell id="0" />
        <mxCell id="1" parent="0" />
        <mxCell id="RF0RrWAYu4FbpbAN4LZ3-1" value="&lt;h1&gt;Student Information system&lt;/h1&gt;" style="rounded=0;whiteSpace=wrap;html=1;" vertex="1" parent="1">
          <mxGeometry x="200" width="440" height="80" as="geometry" />
        </mxCell>
        <mxCell id="RF0RrWAYu4FbpbAN4LZ3-9" value="" style="edgeStyle=orthogonalEdgeStyle;rounded=0;orthogonalLoop=1;jettySize=auto;html=1;" edge="1" parent="1" source="RF0RrWAYu4FbpbAN4LZ3-7" target="RF0RrWAYu4FbpbAN4LZ3-8">
          <mxGeometry relative="1" as="geometry" />
        </mxCell>
        <mxCell id="RF0RrWAYu4FbpbAN4LZ3-13" value="" style="edgeStyle=orthogonalEdgeStyle;rounded=0;orthogonalLoop=1;jettySize=auto;html=1;" edge="1" parent="1" source="RF0RrWAYu4FbpbAN4LZ3-7" target="RF0RrWAYu4FbpbAN4LZ3-12">
          <mxGeometry relative="1" as="geometry" />
        </mxCell>
        <mxCell id="RF0RrWAYu4FbpbAN4LZ3-7" value="&lt;h2&gt;Admin&lt;/h2&gt;" style="rounded=0;whiteSpace=wrap;html=1;fillColor=light-dark(#FFFFFF,#FF3399);" vertex="1" parent="1">
          <mxGeometry x="40" y="160" width="120" height="60" as="geometry" />
        </mxCell>
        <mxCell id="RF0RrWAYu4FbpbAN4LZ3-11" value="" style="edgeStyle=orthogonalEdgeStyle;rounded=0;orthogonalLoop=1;jettySize=auto;html=1;" edge="1" parent="1" source="RF0RrWAYu4FbpbAN4LZ3-8" target="RF0RrWAYu4FbpbAN4LZ3-10">
          <mxGeometry relative="1" as="geometry" />
        </mxCell>
        <mxCell id="RF0RrWAYu4FbpbAN4LZ3-8" value="&lt;h2&gt;Forgot password&lt;/h2&gt;" style="ellipse;whiteSpace=wrap;html=1;rounded=0;fillColor=light-dark(#FFFFFF,#FF3399);" vertex="1" parent="1">
          <mxGeometry x="50" y="290" width="100" height="80" as="geometry" />
        </mxCell>
        <mxCell id="RF0RrWAYu4FbpbAN4LZ3-10" value="&lt;pre&gt;&lt;h2&gt;Send Email&lt;/h2&gt;To User&lt;/pre&gt;" style="ellipse;whiteSpace=wrap;html=1;rounded=0;fillColor=light-dark(#FFFFFF,#FF3399);" vertex="1" parent="1">
          <mxGeometry x="40" y="450" width="120" height="90" as="geometry" />
        </mxCell>
        <mxCell id="RF0RrWAYu4FbpbAN4LZ3-15" value="" style="edgeStyle=orthogonalEdgeStyle;rounded=0;orthogonalLoop=1;jettySize=auto;html=1;" edge="1" parent="1" source="RF0RrWAYu4FbpbAN4LZ3-12" target="RF0RrWAYu4FbpbAN4LZ3-14">
          <mxGeometry relative="1" as="geometry" />
        </mxCell>
        <mxCell id="RF0RrWAYu4FbpbAN4LZ3-12" value="Login to&amp;nbsp;&lt;br&gt;System" style="ellipse;whiteSpace=wrap;html=1;rounded=0;fillColor=light-dark(#FFFFFF,#FF3399);" vertex="1" parent="1">
          <mxGeometry x="260" y="150" width="80" height="80" as="geometry" />
        </mxCell>
        <mxCell id="RF0RrWAYu4FbpbAN4LZ3-14" value="Check&amp;nbsp;&lt;br&gt;Credentials" style="ellipse;whiteSpace=wrap;html=1;rounded=0;fillColor=light-dark(#FFFFFF,#FF3399);" vertex="1" parent="1">
          <mxGeometry x="260" y="310" width="80" height="80" as="geometry" />
        </mxCell>
        <mxCell id="RF0RrWAYu4FbpbAN4LZ3-21" value="" style="edgeStyle=orthogonalEdgeStyle;rounded=0;orthogonalLoop=1;jettySize=auto;html=1;" edge="1" parent="1" source="RF0RrWAYu4FbpbAN4LZ3-16" target="RF0RrWAYu4FbpbAN4LZ3-20">
          <mxGeometry relative="1" as="geometry" />
        </mxCell>
        <mxCell id="RF0RrWAYu4FbpbAN4LZ3-16" value="Check Roles&lt;br&gt;Of &lt;br&gt;Access" style="ellipse;whiteSpace=wrap;html=1;rounded=0;fillColor=light-dark(#FFFFFF,#FF3399);" vertex="1" parent="1">
          <mxGeometry x="450" y="150" width="80" height="80" as="geometry" />
        </mxCell>
        <mxCell id="RF0RrWAYu4FbpbAN4LZ3-18" value="" style="endArrow=classic;html=1;rounded=0;entryX=0.121;entryY=0.754;entryDx=0;entryDy=0;entryPerimeter=0;exitX=1.037;exitY=0.649;exitDx=0;exitDy=0;exitPerimeter=0;" edge="1" parent="1" source="RF0RrWAYu4FbpbAN4LZ3-14" target="RF0RrWAYu4FbpbAN4LZ3-16">
          <mxGeometry width="50" height="50" relative="1" as="geometry">
            <mxPoint x="490" y="450" as="sourcePoint" />
            <mxPoint x="540" y="400" as="targetPoint" />
            <Array as="points" />
          </mxGeometry>
        </mxCell>
        <mxCell id="RF0RrWAYu4FbpbAN4LZ3-20" value="Manage&lt;br&gt;Modules" style="ellipse;whiteSpace=wrap;html=1;rounded=0;fillColor=light-dark(#FFFFFF,#FF3399);" vertex="1" parent="1">
          <mxGeometry x="450" y="310" width="80" height="80" as="geometry" />
        </mxCell>
        <mxCell id="RF0RrWAYu4FbpbAN4LZ3-22" value="Manage Timetable&lt;br&gt;Details" style="whiteSpace=wrap;html=1;rounded=0;fillColor=light-dark(#FFFFFF,#FF3399);" vertex="1" parent="1">
          <mxGeometry x="640" y="150" width="200" height="60" as="geometry" />
        </mxCell>
        <mxCell id="RF0RrWAYu4FbpbAN4LZ3-30" value="Manage Attendence&lt;br&gt;Details" style="rounded=0;whiteSpace=wrap;html=1;fillColor=light-dark(#FFFFFF,#FF3399);" vertex="1" parent="1">
          <mxGeometry x="640" y="240" width="200" height="60" as="geometry" />
        </mxCell>
        <mxCell id="RF0RrWAYu4FbpbAN4LZ3-31" value="&lt;br&gt;Manage Class&lt;br&gt;&lt;div style=&quot;&quot;&gt;&lt;span style=&quot;background-color: transparent; color: light-dark(rgb(0, 0, 0), rgb(255, 255, 255));&quot;&gt;Details&lt;/span&gt;&lt;/div&gt;&lt;br&gt;&lt;div&gt;&lt;br&gt;&lt;/div&gt;" style="rounded=0;whiteSpace=wrap;html=1;fillColor=light-dark(#FFFFFF,#FF3399);" vertex="1" parent="1">
          <mxGeometry x="640" y="320" width="200" height="60" as="geometry" />
        </mxCell>
        <mxCell id="RF0RrWAYu4FbpbAN4LZ3-32" value="&lt;div style=&quot;forced-color-adjust: none; box-shadow: none !important;&quot;&gt;Manage Student Details&lt;/div&gt;" style="rounded=0;whiteSpace=wrap;html=1;align=center;verticalAlign=middle;fillColor=light-dark(#FFFFFF,#FF3399);" vertex="1" parent="1">
          <mxGeometry x="640" y="399" width="200" height="59" as="geometry" />
        </mxCell>
        <mxCell id="RF0RrWAYu4FbpbAN4LZ3-33" value="Manage Fees Details" style="rounded=0;whiteSpace=wrap;html=1;fillColor=light-dark(#FFFFFF,#FF3399);" vertex="1" parent="1">
          <mxGeometry x="640" y="480" width="200" height="60" as="geometry" />
        </mxCell>
        <mxCell id="RF0RrWAYu4FbpbAN4LZ3-34" value="Manage Teacher Profile" style="rounded=0;whiteSpace=wrap;html=1;fillColor=light-dark(#FFFFFF,#FF3399);" vertex="1" parent="1">
          <mxGeometry x="640" y="558" width="200" height="60" as="geometry" />
        </mxCell>
        <mxCell id="RF0RrWAYu4FbpbAN4LZ3-35" value="Manage Report" style="rounded=0;whiteSpace=wrap;html=1;fillColor=light-dark(#FFFFFF,#FF3399);" vertex="1" parent="1">
          <mxGeometry x="640" y="640" width="200" height="60" as="geometry" />
        </mxCell>
        <mxCell id="RF0RrWAYu4FbpbAN4LZ3-36" value="" style="endArrow=classic;html=1;rounded=0;exitX=0.625;exitY=0;exitDx=0;exitDy=0;exitPerimeter=0;" edge="1" parent="1" source="RF0RrWAYu4FbpbAN4LZ3-20">
          <mxGeometry width="50" height="50" relative="1" as="geometry">
            <mxPoint x="580" y="220" as="sourcePoint" />
            <mxPoint x="630" y="170" as="targetPoint" />
          </mxGeometry>
        </mxCell>
        <mxCell id="RF0RrWAYu4FbpbAN4LZ3-38" value="" style="endArrow=classic;html=1;rounded=0;exitX=1;exitY=0.25;exitDx=0;exitDy=0;exitPerimeter=0;entryX=0;entryY=0.25;entryDx=0;entryDy=0;" edge="1" parent="1" source="RF0RrWAYu4FbpbAN4LZ3-20" target="RF0RrWAYu4FbpbAN4LZ3-30">
          <mxGeometry width="50" height="50" relative="1" as="geometry">
            <mxPoint x="550" y="320" as="sourcePoint" />
            <mxPoint x="600" y="270" as="targetPoint" />
          </mxGeometry>
        </mxCell>
        <mxCell id="RF0RrWAYu4FbpbAN4LZ3-39" value="" style="endArrow=classic;html=1;rounded=0;exitX=1;exitY=0.5;exitDx=0;exitDy=0;" edge="1" parent="1" source="RF0RrWAYu4FbpbAN4LZ3-20">
          <mxGeometry width="50" height="50" relative="1" as="geometry">
            <mxPoint x="590" y="400" as="sourcePoint" />
            <mxPoint x="640" y="350" as="targetPoint" />
          </mxGeometry>
        </mxCell>
        <mxCell id="RF0RrWAYu4FbpbAN4LZ3-40" value="" style="endArrow=classic;html=1;rounded=0;exitX=0.968;exitY=0.79;exitDx=0;exitDy=0;exitPerimeter=0;" edge="1" parent="1" source="RF0RrWAYu4FbpbAN4LZ3-20">
          <mxGeometry width="50" height="50" relative="1" as="geometry">
            <mxPoint x="590" y="480" as="sourcePoint" />
            <mxPoint x="640" y="430" as="targetPoint" />
          </mxGeometry>
        </mxCell>
        <mxCell id="RF0RrWAYu4FbpbAN4LZ3-41" value="" style="endArrow=classic;html=1;rounded=0;exitX=0.697;exitY=1.001;exitDx=0;exitDy=0;exitPerimeter=0;" edge="1" parent="1" source="RF0RrWAYu4FbpbAN4LZ3-20">
          <mxGeometry width="50" height="50" relative="1" as="geometry">
            <mxPoint x="590" y="560" as="sourcePoint" />
            <mxPoint x="640" y="510" as="targetPoint" />
          </mxGeometry>
        </mxCell>
        <mxCell id="RF0RrWAYu4FbpbAN4LZ3-42" value="" style="endArrow=classic;html=1;rounded=0;exitX=0.356;exitY=1.025;exitDx=0;exitDy=0;exitPerimeter=0;" edge="1" parent="1" source="RF0RrWAYu4FbpbAN4LZ3-20">
          <mxGeometry width="50" height="50" relative="1" as="geometry">
            <mxPoint x="590" y="640" as="sourcePoint" />
            <mxPoint x="640" y="590" as="targetPoint" />
          </mxGeometry>
        </mxCell>
        <mxCell id="RF0RrWAYu4FbpbAN4LZ3-43" value="" style="endArrow=classic;html=1;rounded=0;exitX=-0.009;exitY=0.625;exitDx=0;exitDy=0;exitPerimeter=0;" edge="1" parent="1" source="RF0RrWAYu4FbpbAN4LZ3-20">
          <mxGeometry width="50" height="50" relative="1" as="geometry">
            <mxPoint x="430" y="410" as="sourcePoint" />
            <mxPoint x="640" y="670" as="targetPoint" />
          </mxGeometry>
        </mxCell>
        <mxCell id="RF0RrWAYu4FbpbAN4LZ3-44" value="Manage System&lt;br&gt;Admin" style="rounded=0;whiteSpace=wrap;html=1;fillColor=light-dark(#FFFFFF,#FF3399);" vertex="1" parent="1">
          <mxGeometry x="40" y="600" width="160" height="60" as="geometry" />
        </mxCell>
        <mxCell id="RF0RrWAYu4FbpbAN4LZ3-45" value="Manage Roles Of User" style="rounded=0;whiteSpace=wrap;html=1;fillColor=light-dark(#FFFFFF,#FF3399);" vertex="1" parent="1">
          <mxGeometry x="220" y="600" width="160" height="60" as="geometry" />
        </mxCell>
        <mxCell id="RF0RrWAYu4FbpbAN4LZ3-46" value="Manage User&amp;nbsp;&lt;br&gt;Permission" style="rounded=0;whiteSpace=wrap;html=1;fillColor=light-dark(#FFFFFF,#FF3399);" vertex="1" parent="1">
          <mxGeometry x="400" y="600" width="160" height="60" as="geometry" />
        </mxCell>
        <mxCell id="RF0RrWAYu4FbpbAN4LZ3-47" value="" style="endArrow=classic;html=1;rounded=0;exitX=0;exitY=0.375;exitDx=0;exitDy=0;exitPerimeter=0;" edge="1" parent="1" source="RF0RrWAYu4FbpbAN4LZ3-20">
          <mxGeometry width="50" height="50" relative="1" as="geometry">
            <mxPoint x="70" y="640" as="sourcePoint" />
            <mxPoint x="120" y="590" as="targetPoint" />
          </mxGeometry>
        </mxCell>
        <mxCell id="RF0RrWAYu4FbpbAN4LZ3-49" value="" style="endArrow=classic;html=1;rounded=0;exitX=0.003;exitY=0.637;exitDx=0;exitDy=0;exitPerimeter=0;" edge="1" parent="1" source="RF0RrWAYu4FbpbAN4LZ3-20">
          <mxGeometry width="50" height="50" relative="1" as="geometry">
            <mxPoint x="270" y="640" as="sourcePoint" />
            <mxPoint x="320" y="590" as="targetPoint" />
          </mxGeometry>
        </mxCell>
        <mxCell id="RF0RrWAYu4FbpbAN4LZ3-50" value="" style="endArrow=classic;html=1;rounded=0;exitX=0.062;exitY=0.778;exitDx=0;exitDy=0;exitPerimeter=0;" edge="1" parent="1" source="RF0RrWAYu4FbpbAN4LZ3-20">
          <mxGeometry width="50" height="50" relative="1" as="geometry">
            <mxPoint x="430" y="640" as="sourcePoint" />
            <mxPoint x="480" y="590" as="targetPoint" />
          </mxGeometry>
        </mxCell>
      </root>
    </mxGraphModel>
  </diagram>
</mxfile>
